<svg width="246" height="111" viewBox="0 0 246 111" fill="none" xmlns="http://www.w3.org/2000/svg">
<path d="M95.8448 19.5753L18.0979 55.1246L95.9371 90.4893V107.848L15.1431 71.3757V106.833H0V3.69346H15.1431V39.0582L95.9371 2.40076V19.5753H95.8448Z" fill="white"/>
<path d="M152.631 110.249C122.161 110.249 97.5068 85.5032 97.5068 55.1246C97.5068 24.6537 122.161 0 152.631 0C183.01 0 207.756 24.6537 207.756 55.1246C207.664 85.5032 182.918 110.249 152.631 110.249ZM124.561 83.0101C132.04 90.4893 141.92 94.6444 152.539 94.6444C163.158 94.6444 173.038 90.4893 180.517 83.0101C187.996 75.6232 191.967 65.6509 191.967 55.1246C191.967 44.506 187.996 34.5337 180.517 27.1468C173.038 19.6676 163.158 15.5125 152.539 15.5125C141.92 15.5125 132.04 19.6676 124.561 27.1468C117.082 34.5337 112.927 44.506 112.927 55.1246C112.927 65.5586 117.082 75.6232 124.561 83.0101Z" fill="white"/>
<path d="M245.828 3.69344L226.068 106.833H209.632L229.392 3.69344H245.828Z" fill="white"/>
</svg>
